<?xml version="1.0" encoding="UTF-8"?><svg id="Layer_1" xmlns="http://www.w3.org/2000/svg" viewBox="0 0 786.9 145.4"><defs><style>.cls-1{letter-spacing:0em;}.cls-2{font-size:35px;}.cls-3{letter-spacing:0em;}.cls-4{letter-spacing:0em;}.cls-5{letter-spacing:0em;}.cls-6{letter-spacing:0em;}.cls-7{letter-spacing:0em;}.cls-8{letter-spacing:0em;}.cls-9{letter-spacing:0em;}.cls-10{font-family:YoungSerif-Regular, 'Young Serif';}.cls-10,.cls-11{fill:#fff;stroke:#fff;stroke-miterlimit:10;}.cls-12{letter-spacing:0em;}.cls-13{letter-spacing:0em;}.cls-14{font-size:65px;}</style></defs><path class="cls-11" d="m163.3,110.7s10.4-6.8,17.2-3.1c0,0,3.1-1.8,15.7-12.3,0,0-19.8,6-32.9,3.9l-24-18.3v-21.9s28.7-3.1,21.9-38.6c0,0,.5-4.7,6,0,5.5,4.7,31.6,13.6,31.6,13.6,0,0-1.8-4.8.3-11.6,0,0-7-12.9,5-4.1,0,0-1.6,2.1,11,14.6v4.7s13.6-7.3,22.4-1.6l2.6-4.7s5.2-1-9.9-2.6c0,0-8.9-27.1-46.4-16.7,0,0-21.9-27.1-48.5,1.6,0,0-33.9-23-69.4,1.6-2-.9-27.9,8.9-41.7,42.8l-6.3,7.8,2.1,4.9s-5.7-1.2-7.8,17.6L.5,99.2v7.3l12.5-9.4,6.3-1.6s-3.7-7.8,17.7-12.5l.5,9.4s-13,3.7-17.7,12.5l6.4,7.7,14.5-8.7,9.4,2.6s4.2-2.6,2.1,20.3c0,0,3.1,2.1,6.3,0,0,0,8.3-3.4,10.4.9,0,0,2.6-7.7,8.9-6.7,0,0-24-7.8-18.3-11.5,0,0,30.8,3.1,42.8-10.4,0,0,19.3-21.4,43.3-4.7,0,0,17.7,4.2,17.7,16.2Z"/><text class="cls-10" transform="translate(246.7 57.2)"><tspan class="cls-2"><tspan class="cls-4" x="0" y="0">T</tspan><tspan class="cls-8" x="28" y="0">h</tspan><tspan class="cls-12" x="51.2" y="0">e</tspan></tspan><tspan class="cls-14"><tspan class="cls-5" x="0" y="68">Gal</tspan><tspan class="cls-9" x="117.1" y="68">l</tspan><tspan class="cls-3" x="139.5" y="68">o</tspan><tspan class="cls-1" x="176.9" y="68">p</tspan><tspan class="cls-13" x="218.4" y="68">i</tspan><tspan class="cls-5" x="243.1" y="68">ng Go</tspan><tspan class="cls-3" x="431.9" y="68">o</tspan><tspan class="cls-6" x="469.2" y="68">s</tspan><tspan class="cls-7" x="504.9" y="68">e</tspan></tspan></text></svg>