<?xml version="1.0" encoding="UTF-8"?><svg id="Layer_1" xmlns="http://www.w3.org/2000/svg" viewBox="0 0 1010.2 421.1"><defs><style>.cls-1{fill:#fff;stroke:#fff;stroke-miterlimit:10;}</style></defs><path class="cls-1" d="m238.7,139.2c4-11,6.2-22.9,6.2-35.4C244.9,46.7,198.7.5,141.6.5S38.3,46.7,38.3,103.8s2.5,25.9,7.1,37.6C19.1,151.6.5,177.1.5,207.1s31.6,70.6,70.6,70.6,8.4-.4,12.4-1.1l-39.5-39.5,8.4-8.4,44.2,44.2c17.5-6.8,31.6-20.3,39.1-37.4v-109.3h19.9v110.6c3.4,7.2,7.9,13.8,13.4,19.4l65.8-65.8,8.1,8.1-65.3,65.3c11.7,8.7,26.2,13.8,42,13.8,39,0,70.6-31.6,70.6-70.6s-21.7-59.6-51.4-67.9Z"/><path class="cls-1" d="m149,207.1c0,0,0-.2,0-.3-2.4.2-4.9.3-7.4.3,0,10.1-2.1,19.7-5.9,28.4v76.6l1.3,1.3-1.3,1.3v75.6h19.9v-153.3c-4.2-9-6.6-19.1-6.6-29.7Z"/><path class="cls-1" d="m96.6,272.9c-4.2,1.6-8.6,2.9-13.1,3.7l52.2,52.2v-16.8l-39.1-39.1Z"/><path class="cls-1" d="m168.9,256.2l-13.4,13.4v16.2l22-22c-3.1-2.3-6-4.8-8.6-7.6Z"/><path class="cls-1" d="m339.7,292.7V49.2h-90.9V16.7h218.8v32.6h-91.3v243.4h-36.5Z"/><path class="cls-1" d="m486,292.7V92.7h30.5v30.3c7.8-14.2,15-23.5,21.6-28.1,6.6-4.5,13.8-6.8,21.7-6.8,11.4,0,23,3.6,34.8,10.9l-11.7,31.4c-8.3-4.9-16.6-7.3-24.9-7.3s-14.1,2.2-20,6.7c-5.9,4.5-10.1,10.6-12.6,18.5-3.8,12-5.6,25.2-5.6,39.5v104.7h-33.9Z"/><path class="cls-1" d="m751.6,228.3l35,4.3c-5.5,20.5-15.8,36.3-30.7,47.6-14.9,11.3-34,16.9-57.2,16.9s-52.4-9-69.6-27c-17.1-18-25.7-43.3-25.7-75.8s8.7-59.7,26-78.3c17.3-18.6,39.8-27.9,67.4-27.9s48.6,9.1,65.5,27.3c16.9,18.2,25.4,43.8,25.4,76.8s0,5-.2,9h-149.1c1.3,22,7.5,38.8,18.6,50.5,11.2,11.7,25.1,17.5,41.8,17.5s23-3.3,31.8-9.8c8.8-6.5,15.8-16.9,20.9-31.3Zm-111.3-54.8h111.6c-1.5-16.8-5.8-29.4-12.8-37.8-10.8-13.1-24.8-19.6-42-19.6s-28.6,5.2-39.3,15.6c-10.6,10.4-16.5,24.4-17.6,41.8Z"/><path class="cls-1" d="m966.1,228.3l35,4.3c-5.5,20.5-15.8,36.3-30.7,47.6-14.9,11.3-34,16.9-57.2,16.9s-52.4-9-69.6-27c-17.1-18-25.7-43.3-25.7-75.8s8.7-59.7,26-78.3c17.3-18.6,39.8-27.9,67.4-27.9s48.6,9.1,65.5,27.3c16.9,18.2,25.4,43.8,25.4,76.8s0,5-.2,9h-149.1c1.3,22,7.5,38.8,18.6,50.5,11.2,11.7,25.1,17.5,41.8,17.5s23-3.3,31.8-9.8c8.8-6.5,15.8-16.9,20.9-31.3Zm-111.3-54.8h111.6c-1.5-16.8-5.8-29.4-12.8-37.8-10.8-13.1-24.8-19.6-42-19.6s-28.6,5.2-39.3,15.6c-10.6,10.4-16.5,24.4-17.6,41.8Z"/><path class="cls-1" d="m341.3,395.4v-85.6h32.3c5.7,0,10,.3,13,.8,4.2.7,7.7,2,10.6,4,2.8,2,5.1,4.7,6.9,8.3,1.7,3.5,2.6,7.4,2.6,11.7,0,7.3-2.3,13.4-7,18.5-4.6,5-13,7.6-25.1,7.6h-22v34.8h-11.3Zm11.3-44.9h22.1c7.3,0,12.5-1.4,15.6-4.1,3.1-2.7,4.6-6.6,4.6-11.5s-.9-6.7-2.7-9.2-4.2-4.2-7.2-5.1c-1.9-.5-5.4-.8-10.6-.8h-21.9v30.6Z"/><path class="cls-1" d="m419.8,395.4v-85.6h10.5v30.7c4.9-5.7,11.1-8.5,18.6-8.5s8.6.9,12,2.7c3.4,1.8,5.8,4.3,7.3,7.5,1.5,3.2,2.2,7.8,2.2,13.9v39.3h-10.5v-39.3c0-5.3-1.1-9.1-3.4-11.5s-5.5-3.6-9.7-3.6-6,.8-8.8,2.4-4.7,3.8-5.9,6.6-1.8,6.6-1.8,11.5v33.9h-10.5Z"/><path class="cls-1" d="m482.4,364.4c0-11.5,3.2-20,9.6-25.5,5.3-4.6,11.8-6.9,19.5-6.9s15.5,2.8,20.9,8.4c5.4,5.6,8.1,13.3,8.1,23.2s-1.2,14.3-3.6,18.8c-2.4,4.6-5.9,8.1-10.5,10.7-4.6,2.5-9.6,3.8-15,3.8-8.7,0-15.7-2.8-21.1-8.4-5.4-5.6-8-13.6-8-24.1Zm10.8,0c0,7.9,1.7,13.9,5.2,17.8,3.5,4,7.8,5.9,13.1,5.9s9.6-2,13-6c3.5-4,5.2-10,5.2-18.2s-1.7-13.5-5.2-17.4c-3.5-4-7.8-5.9-13-5.9s-9.6,2-13.1,5.9c-3.5,3.9-5.2,9.9-5.2,17.8Z"/><path class="cls-1" d="m575.8,386l1.5,9.3c-3,.6-5.6.9-7.9.9-3.8,0-6.8-.6-8.9-1.8-2.1-1.2-3.6-2.8-4.4-4.8-.9-2-1.3-6.1-1.3-12.4v-35.7h-7.7v-8.2h7.7v-15.4l10.5-6.3v21.7h10.6v8.2h-10.6v36.3c0,3,.2,4.9.6,5.8.4.9,1,1.5,1.8,2,.8.5,2,.8,3.6.8s2.7-.1,4.6-.4Z"/><path class="cls-1" d="m582.2,364.4c0-11.5,3.2-20,9.6-25.5,5.3-4.6,11.8-6.9,19.5-6.9s15.5,2.8,20.9,8.4c5.4,5.6,8.1,13.3,8.1,23.2s-1.2,14.3-3.6,18.8c-2.4,4.6-5.9,8.1-10.5,10.7-4.6,2.5-9.6,3.8-15,3.8-8.7,0-15.7-2.8-21.1-8.4-5.4-5.6-8-13.6-8-24.1Zm10.8,0c0,7.9,1.7,13.9,5.2,17.8,3.5,4,7.8,5.9,13.1,5.9s9.6-2,13-6c3.5-4,5.2-10,5.2-18.2s-1.7-13.5-5.2-17.4c-3.5-4-7.8-5.9-13-5.9s-9.6,2-13.1,5.9c-3.5,3.9-5.2,9.9-5.2,17.8Z"/><path class="cls-1" d="m650.7,400.5l10.2,1.5c.4,3.2,1.6,5.5,3.6,6.9,2.6,1.9,6.2,2.9,10.7,2.9s8.6-1,11.3-2.9c2.6-1.9,4.4-4.7,5.4-8.2.5-2.1.8-6.6.8-13.5-4.6,5.4-10.3,8.1-17.2,8.1s-15.1-3.1-19.8-9.2c-4.7-6.2-7-13.5-7-22.1s1.1-11.4,3.2-16.4c2.1-5,5.2-8.9,9.3-11.6,4.1-2.7,8.9-4.1,14.3-4.1s13.4,3,18.1,8.9v-7.5h9.7v53.6c0,9.7-1,16.5-3,20.5s-5.1,7.2-9.3,9.6-9.5,3.5-15.7,3.5-13.4-1.7-17.9-5-6.8-8.3-6.6-15Zm8.7-37.3c0,8.1,1.6,14.1,4.8,17.8,3.2,3.7,7.3,5.6,12.2,5.6s8.9-1.9,12.2-5.6c3.3-3.7,4.9-9.6,4.9-17.5s-1.7-13.3-5.1-17.2c-3.4-3.9-7.4-5.8-12.2-5.8s-8.6,1.9-11.9,5.7c-3.3,3.8-4.9,9.4-4.9,16.9Z"/><path class="cls-1" d="m719,395.4v-62h9.5v9.4c2.4-4.4,4.6-7.3,6.7-8.7,2-1.4,4.3-2.1,6.7-2.1,3.5,0,7.1,1.1,10.8,3.4l-3.6,9.8c-2.6-1.5-5.1-2.3-7.7-2.3s-4.4.7-6.2,2.1c-1.8,1.4-3.1,3.3-3.9,5.8-1.2,3.7-1.8,7.8-1.8,12.3v32.5h-10.5Z"/><path class="cls-1" d="m799.5,387.7c-3.9,3.3-7.6,5.6-11.2,7s-7.5,2-11.6,2c-6.8,0-12.1-1.7-15.7-5-3.7-3.3-5.5-7.6-5.5-12.8s.7-5.8,2.1-8.3c1.4-2.5,3.2-4.5,5.4-6,2.2-1.5,4.8-2.7,7.6-3.4,2.1-.5,5.2-1.1,9.3-1.6,8.5-1,14.7-2.2,18.8-3.6,0-1.4,0-2.4,0-2.7,0-4.3-1-7.3-3-9.1-2.7-2.4-6.7-3.6-12-3.6s-8.6.9-11,2.6c-2.4,1.7-4.1,4.8-5.2,9.2l-10.3-1.4c.9-4.4,2.5-8,4.6-10.7s5.2-4.8,9.3-6.3c4.1-1.5,8.7-2.2,14.1-2.2s9.6.6,12.9,1.9c3.3,1.2,5.7,2.8,7.3,4.7s2.6,4.3,3.3,7.2c.4,1.8.5,5,.5,9.7v14c0,9.8.2,16,.7,18.5.4,2.6,1.3,5.1,2.7,7.4h-11c-1.1-2.2-1.8-4.7-2.1-7.7Zm-.9-23.5c-3.8,1.6-9.5,2.9-17.2,4-4.3.6-7.4,1.3-9.2,2.1-1.8.8-3.2,1.9-4.1,3.4s-1.5,3.2-1.5,5c0,2.8,1.1,5.1,3.2,7,2.1,1.9,5.2,2.8,9.3,2.8s7.7-.9,10.8-2.7c3.2-1.8,5.5-4.2,7-7.3,1.1-2.4,1.7-5.9,1.7-10.5v-3.9Z"/><path class="cls-1" d="m825.5,419.2v-85.8h9.6v8.1c2.3-3.2,4.8-5.5,7.7-7.1,2.8-1.6,6.3-2.4,10.3-2.4s10,1.4,14,4.1c4,2.7,7.1,6.6,9.2,11.5,2.1,5,3.1,10.4,3.1,16.3s-1.1,12.1-3.4,17.1c-2.3,5.1-5.6,9-9.9,11.7-4.3,2.7-8.9,4.1-13.7,4.1s-6.7-.7-9.4-2.2c-2.8-1.5-5.1-3.3-6.9-5.6v30.2h-10.5Zm9.5-54.4c0,8,1.6,13.9,4.8,17.7,3.2,3.8,7.1,5.7,11.7,5.7s8.7-2,12-5.9c3.3-4,5-10.1,5-18.4s-1.6-13.8-4.9-17.8-7.1-5.9-11.7-5.9-8.4,2.1-11.9,6.3c-3.4,4.2-5.2,10.3-5.2,18.3Z"/><path class="cls-1" d="m892.1,395.4v-85.6h10.5v30.7c4.9-5.7,11.1-8.5,18.6-8.5s8.6.9,12,2.7c3.4,1.8,5.8,4.3,7.3,7.5,1.5,3.2,2.2,7.8,2.2,13.9v39.3h-10.5v-39.3c0-5.3-1.1-9.1-3.4-11.5s-5.5-3.6-9.7-3.6-6,.8-8.8,2.4-4.7,3.8-5.9,6.6c-1.2,2.8-1.8,6.6-1.8,11.5v33.9h-10.5Z"/><path class="cls-1" d="m958.2,419.3l-1.2-9.9c2.3.6,4.3.9,6,.9s4.2-.4,5.6-1.2c1.4-.8,2.5-1.9,3.4-3.3.7-1.1,1.7-3.7,3.2-7.8.2-.6.5-1.4.9-2.6l-23.5-62.2h11.3l12.9,35.9c1.7,4.6,3.2,9.3,4.5,14.4,1.2-4.8,2.6-9.5,4.3-14.1l13.3-36.2h10.5l-23.6,63.1c-2.5,6.8-4.5,11.5-5.9,14.1-1.9,3.5-4,6-6.4,7.6-2.4,1.6-5.3,2.4-8.6,2.4s-4.3-.4-6.8-1.3Z"/></svg>